<?xml version="1.0" standalone="no"?>
<!DOCTYPE svg PUBLIC "-//W3C//DTD SVG 20010904//EN"
 "http://www.w3.org/TR/2001/REC-SVG-20010904/DTD/svg10.dtd">
<svg version="1.0" xmlns="http://www.w3.org/2000/svg"
 width="892.000000pt" height="388.000000pt" viewBox="0 0 892.000000 388.000000"
 preserveAspectRatio="xMidYMid meet">

<g transform="translate(0.000000,388.000000) scale(0.100000,-0.100000)"
fill="#000000" stroke="none">
<path d="M3760 3664 c-89 -30 -163 -93 -202 -172 l-23 -47 -3 -733 c-2 -494 1
-746 8 -773 15 -54 60 -102 120 -128 49 -21 63 -22 309 -19 l258 3 48 30 c30
19 58 47 74 75 l26 45 3 700 c3 770 1 801 -51 881 -37 56 -113 117 -165 132
-37 11 -373 15 -402 6z m366 -77 c64 -17 116 -58 146 -116 l23 -46 2 -748 c2
-446 -1 -746 -7 -742 -5 3 -12 0 -17 -8 -4 -7 -21 -23 -37 -35 -28 -21 -36
-22 -276 -22 -141 0 -259 4 -276 10 -16 6 -40 27 -54 47 l-25 37 -3 695 c-2
482 0 712 8 747 20 95 85 163 174 185 54 12 288 10 342 -4z"/>
<path d="M3795 3410 c-9 -15 -15 -92 -9 -117 7 -24 34 -35 58 -21 20 11 23
117 4 136 -15 15 -45 16 -53 2z"/>
<path d="M4062 3411 c-14 -9 -24 -86 -15 -119 6 -26 29 -35 54 -22 15 9 19 22
19 68 0 71 -21 97 -58 73z"/>
<path d="M3794 3198 c-11 -18 -14 -87 -4 -114 10 -26 38 -32 58 -12 12 12 16
95 6 122 -7 18 -49 22 -60 4z"/>
<path d="M4049 3193 c0 -10 -2 -27 -5 -38 -8 -37 6 -84 27 -90 32 -10 49 12
49 65 0 66 -7 80 -41 80 -21 0 -29 -5 -30 -17z"/>
<path d="M3794 2997 c-2 -7 -3 -42 -2 -77 3 -53 6 -65 21 -68 33 -6 47 17 47
77 0 31 -5 62 -12 69 -16 16 -47 15 -54 -1z"/>
<path d="M4052 2985 c-33 -72 7 -163 53 -125 18 15 20 101 5 131 -15 27 -45
24 -58 -6z"/>
<path d="M3803 2793 c-9 -3 -13 -28 -13 -73 0 -60 2 -69 20 -75 35 -11 50 12
50 76 0 47 -4 60 -19 69 -11 5 -21 10 -23 9 -2 0 -9 -3 -15 -6z"/>
<path d="M4060 2785 c-18 -21 -24 -98 -11 -124 13 -23 40 -28 59 -9 17 17 15
116 -2 134 -19 18 -30 18 -46 -1z"/>
<path d="M3796 2574 c-18 -18 -21 -85 -6 -115 14 -24 57 -25 64 -1 9 27 4 105
-7 120 -13 16 -32 15 -51 -4z"/>
<path d="M4056 2573 c-13 -43 -15 -84 -6 -107 10 -28 38 -34 58 -14 16 16 16
110 0 126 -18 18 -46 15 -52 -5z"/>
<path d="M3808 2383 c-12 -3 -19 -19 -23 -57 -8 -60 5 -96 33 -96 31 0 42 22
42 82 0 60 -14 79 -52 71z"/>
<path d="M4054 2369 c-12 -20 -12 -102 -1 -121 13 -21 38 -23 55 -6 16 16 16
110 0 126 -15 15 -45 16 -54 1z"/>
<path d="M3797 2173 c-4 -3 -7 -37 -7 -74 0 -59 2 -68 20 -74 35 -11 50 12 50
74 0 31 -5 62 -12 69 -13 13 -41 16 -51 5z"/>
<path d="M4055 2170 c-4 -6 -9 -32 -12 -58 -4 -38 -1 -53 15 -72 17 -20 24
-23 39 -14 22 13 31 117 12 140 -13 16 -45 19 -54 4z"/>
<path d="M4510 2975 c-6 -8 -9 -23 -5 -34 5 -18 18 -19 223 -23 187 -3 222 -6
252 -22 49 -26 88 -64 113 -111 22 -39 22 -49 22 -447 l0 -407 -34 -30 c-26
-24 -44 -31 -75 -31 -23 0 -135 -1 -251 -1 -239 -1 -288 -6 -293 -32 -9 -45 4
-47 295 -47 224 0 280 3 311 15 47 20 79 50 103 98 19 36 20 58 17 450 l-3
412 -25 48 c-33 66 -104 130 -173 156 -52 19 -78 21 -261 21 -166 0 -206 -3
-216 -15z"/>
<path d="M4612 2748 c-7 -7 -12 -37 -12 -68 0 -50 3 -58 25 -70 35 -19 52 -1
53 55 2 80 -30 119 -66 83z"/>
<path d="M4875 2737 c-11 -42 -1 -119 16 -130 28 -17 49 14 49 71 0 66 -7 82
-36 82 -16 0 -25 -7 -29 -23z"/>
<path d="M4612 2534 c-8 -9 -12 -34 -10 -66 3 -47 6 -54 31 -62 35 -12 47 2
47 56 0 75 -34 111 -68 72z"/>
<path d="M4874 2537 c-3 -8 -4 -41 -2 -73 3 -56 4 -59 30 -62 33 -4 41 18 36
94 -3 45 -5 49 -31 52 -17 2 -29 -2 -33 -11z"/>
<path d="M4613 2335 c-16 -17 -17 -99 -3 -126 6 -10 19 -19 30 -19 24 0 40 29
40 72 0 64 -39 106 -67 73z"/>
<path d="M4882 2338 c-18 -18 -15 -123 4 -139 29 -24 49 1 52 65 4 74 -22 108
-56 74z"/>
<path d="M4612 2128 c-7 -7 -12 -38 -12 -70 0 -46 4 -59 19 -68 25 -13 48 -4
54 20 6 22 0 107 -8 121 -9 13 -39 11 -53 -3z"/>
<path d="M4874 2126 c-3 -7 -4 -39 -2 -71 3 -65 23 -90 52 -66 23 19 23 136 0
145 -25 10 -44 7 -50 -8z"/>
<path d="M5592 1893 l3 -78 1245 0 1245 0 3 78 3 77 -1251 0 -1251 0 3 -77z"/>
<path d="M637 1943 c-4 -3 -7 -39 -7 -80 l0 -73 1250 0 1251 0 -3 78 -3 77
-1241 3 c-682 1 -1244 -1 -1247 -5z"/>
<path d="M2612 1301 c2 -11 15 -16 38 -17 l35 0 3 -382 2 -382 -32 -1 c-18 -1
-37 -1 -41 0 -5 1 -7 -6 -5 -16 3 -16 17 -18 130 -18 69 0 130 4 134 8 12 11
-16 27 -48 27 l-28 0 0 84 0 84 37 28 36 28 26 -34 c14 -18 50 -67 78 -109 51
-73 52 -76 31 -84 -12 -4 -28 -5 -35 -3 -7 3 -13 -1 -13 -8 0 -18 63 -27 178
-25 67 1 92 5 92 14 0 14 -21 25 -48 25 -10 0 -50 47 -97 112 -44 61 -91 126
-104 145 l-25 34 25 22 c104 94 143 121 170 119 22 -2 29 2 29 15 0 16 -11 18
-100 18 -86 0 -100 -2 -100 -16 0 -9 8 -16 18 -16 9 0 29 -1 45 -2 l27 -1 -37
-33 c-21 -19 -50 -44 -65 -57 -15 -13 -25 -28 -21 -33 3 -6 2 -7 -4 -4 -5 3
-36 -16 -69 -43 -32 -26 -62 -46 -66 -44 -5 3 -8 136 -8 295 l0 289 -95 -2
c-81 -1 -95 -4 -93 -17z"/>
<path d="M6010 1300 c0 -17 7 -20 40 -20 l40 0 0 -380 c0 -297 -3 -380 -12
-381 -7 -1 -23 -3 -36 -4 -12 -1 -25 -5 -28 -8 -18 -18 20 -24 138 -23 111 1
133 3 133 16 0 9 -10 15 -25 16 -14 0 -31 1 -37 2 -10 2 -13 46 -13 185 0 178
1 184 23 204 58 54 145 69 188 34 24 -19 24 -23 27 -220 l4 -201 -41 0 c-34 0
-41 -3 -41 -20 0 -19 7 -20 104 -20 111 0 166 7 166 21 0 5 -11 9 -24 9 -57 0
-56 -3 -56 192 0 139 -3 185 -15 208 -45 87 -193 110 -290 44 -20 -13 -38 -24
-40 -24 -3 0 -5 88 -5 195 l0 195 -100 0 c-93 0 -100 -1 -100 -20z"/>
<path d="M8302 1301 c2 -11 15 -16 43 -17 l40 0 3 -381 2 -380 -40 -7 c-22 -3
-40 -12 -40 -19 0 -10 32 -13 138 -12 115 0 137 2 137 15 0 9 -10 16 -22 16
-70 4 -63 -42 -63 404 l0 401 -100 -2 c-86 -2 -100 -5 -98 -18z"/>
<path d="M247 1243 c-67 -5 -76 -28 -11 -29 l39 0 0 -350 0 -349 -39 -2 c-21
-1 -41 -4 -43 -7 -17 -16 24 -23 157 -24 122 -2 150 1 150 12 0 9 -17 16 -50
21 l-50 7 0 137 0 137 29 28 29 27 104 -128 c149 -183 161 -200 146 -205 -7
-3 -23 -4 -35 -3 -31 2 -29 -21 2 -29 40 -10 264 -5 271 6 9 13 1 19 -38 25
-18 3 -33 6 -34 6 0 1 -56 70 -125 152 -68 83 -144 174 -168 203 l-44 53 129
132 c71 73 135 136 143 141 8 5 32 8 53 8 30 -2 38 2 38 16 0 15 -11 17 -105
14 -87 -3 -105 -6 -105 -19 0 -11 8 -14 30 -11 17 3 33 1 36 -4 8 -13 -338
-360 -348 -350 -5 5 -7 87 -6 182 l3 174 48 -1 c33 -1 47 3 47 12 0 9 -12 14
-37 13 -21 0 -65 2 -98 4 -33 3 -86 3 -118 1z"/>
<path d="M1693 1147 l-43 -11 0 -72 c0 -55 -4 -75 -17 -85 -10 -8 -14 -9 -10
-2 5 8 0 11 -13 10 -32 -2 -25 -34 8 -33 l27 1 5 -190 c4 -126 10 -198 18
-215 35 -67 145 -94 229 -56 23 10 44 25 47 32 7 18 -14 17 -38 -1 -29 -22
-92 -19 -116 5 -19 19 -20 31 -18 222 l3 201 78 -2 c69 -2 77 0 77 16 0 15 -8
18 -58 17 -105 -1 -102 -4 -102 92 0 94 4 90 -77 71z"/>
<path d="M7393 1147 l-43 -10 0 -72 0 -72 -30 -6 c-40 -8 -42 -40 -2 -35 l27
3 5 -197 c5 -179 7 -199 26 -225 29 -39 67 -55 133 -56 54 0 111 19 126 44 12
19 -4 22 -29 5 -36 -23 -98 -21 -122 5 -17 19 -19 41 -22 220 l-3 198 83 3
c61 2 83 7 83 16 0 10 -21 14 -80 15 l-80 2 -3 88 c-2 61 -6 87 -15 86 -7 -1
-31 -6 -54 -12z"/>
<path d="M1210 986 c-87 -23 -149 -76 -179 -153 -8 -20 -12 -63 -10 -111 5
-99 38 -160 114 -206 43 -27 61 -31 132 -35 86 -3 131 10 193 58 42 33 15 34
-42 2 -43 -24 -67 -31 -110 -31 -97 0 -150 56 -166 177 l-8 61 35 4 c20 3 102
3 184 1 l147 -4 0 23 c0 42 -30 126 -55 156 -46 54 -151 80 -235 58z m128 -49
c20 -22 52 -130 41 -141 -2 -2 -56 -6 -119 -7 l-115 -2 3 38 c4 46 26 94 56
117 33 27 107 24 134 -5z"/>
<path d="M2194 984 c-27 -7 -52 -13 -55 -14 -3 0 -20 -14 -37 -31 -48 -47 -43
-98 10 -118 22 -8 31 -6 52 10 31 24 32 45 7 79 -18 22 -18 25 -3 37 10 7 44
13 78 13 52 0 64 -3 85 -26 21 -23 24 -36 28 -121 3 -90 2 -95 -15 -88 -106
43 -204 39 -264 -12 -62 -51 -64 -129 -5 -188 63 -62 197 -65 261 -4 l24 23
17 -23 c23 -34 74 -52 113 -41 59 17 84 54 29 43 -21 -4 -34 -1 -40 8 -5 8 -9
87 -9 177 0 173 -7 204 -53 245 -41 35 -149 50 -223 31z m140 -285 c22 -17 26
-28 26 -73 0 -55 -9 -70 -59 -96 -36 -18 -101 -15 -123 7 -37 38 -36 125 2
163 28 28 117 28 154 -1z"/>
<path d="M3468 990 c-60 -11 -115 -53 -129 -100 -10 -33 -9 -46 5 -84 22 -56
62 -87 179 -137 100 -42 131 -69 121 -103 -22 -76 -164 -76 -251 -1 -13 11
-23 25 -23 32 0 7 -9 17 -20 23 -19 10 -20 8 -20 -65 0 -80 13 -97 42 -54 l14
22 42 -22 c51 -26 142 -30 192 -8 19 8 49 29 65 46 26 28 30 40 29 87 0 47 -4
58 -34 89 -21 22 -66 48 -124 72 -142 59 -173 97 -121 148 20 21 34 25 81 25
67 0 115 -25 134 -70 18 -44 35 -31 38 30 4 73 -3 89 -27 59 -18 -23 -19 -23
-57 -6 -48 20 -88 25 -136 17z"/>
<path d="M4005 989 c-82 -10 -135 -46 -148 -98 -13 -53 45 -95 89 -66 29 18
32 65 8 90 -12 12 -14 19 -6 27 16 16 93 25 129 16 52 -13 63 -40 63 -145 0
-51 -2 -93 -5 -93 -4 0 -20 7 -38 17 -20 10 -56 16 -97 16 -115 0 -180 -51
-180 -140 0 -57 41 -104 111 -126 64 -21 116 -14 172 24 l41 28 23 -25 c28
-30 64 -44 94 -38 70 16 101 55 41 51 l-37 -2 -5 182 c-5 196 -9 210 -71 255
-31 22 -119 35 -184 27z m105 -284 c28 -15 30 -19 30 -74 0 -54 -3 -62 -31
-85 -44 -37 -119 -37 -148 0 -31 39 -29 117 4 149 29 30 98 34 145 10z"/>
<path d="M5324 990 c-18 -4 -53 -19 -79 -34 -26 -14 -49 -26 -51 -26 -2 0 -4
11 -4 25 0 27 3 26 -102 29 -32 0 -58 -2 -58 -6 0 -3 -10 -4 -22 -1 -21 4 -21
3 -5 -7 11 -7 30 -10 43 -7 l24 4 0 -223 0 -224 -22 -2 c-13 0 -30 -1 -38 -2
-8 -1 -15 -8 -15 -16 0 -13 24 -15 143 -17 133 -2 142 -1 142 16 0 10 -6 19
-12 18 -7 0 -28 1 -45 1 l-33 2 0 183 0 183 28 25 c58 53 152 67 188 28 17
-19 19 -41 22 -220 l3 -199 -45 0 c-38 0 -46 -3 -46 -18 0 -16 13 -18 140 -19
111 -1 140 1 140 12 0 15 -22 25 -56 25 l-24 0 0 184 c0 173 -1 185 -23 217
-36 54 -122 85 -193 69z"/>
<path d="M6900 988 c-112 -20 -192 -111 -198 -227 -2 -37 1 -85 7 -107 49
-184 303 -240 432 -97 45 50 63 100 63 178 1 172 -133 284 -304 253z m128 -53
c38 -31 52 -88 52 -202 0 -107 -13 -158 -50 -195 -33 -32 -91 -38 -139 -13
-83 42 -96 328 -19 405 40 40 112 43 156 5z"/>
<path d="M7943 989 c-135 -18 -226 -142 -209 -286 16 -135 116 -223 255 -223
80 0 130 15 176 52 51 42 33 54 -23 14 -40 -28 -57 -33 -109 -35 -101 -4 -149
37 -172 147 -21 100 -36 92 169 92 l180 0 0 33 c0 144 -108 228 -267 206z
m120 -61 c13 -18 22 -48 25 -85 l4 -58 -93 2 c-52 1 -106 2 -120 3 -26 0 -27
1 -18 41 22 96 58 131 133 127 40 -2 53 -8 69 -30z"/>
<path d="M4540 976 c-49 -19 -90 -61 -90 -94 0 -33 8 -45 38 -61 19 -10 28
-10 47 3 35 23 40 51 15 85 -15 22 -17 32 -8 37 13 8 160 22 152 15 -2 -3 6
-15 18 -28 19 -20 23 -38 26 -118 3 -52 2 -95 -1 -95 -2 0 -20 7 -40 15 -125
52 -271 0 -283 -101 -17 -132 175 -209 293 -118 l33 25 28 -32 c25 -28 35 -32
72 -31 42 2 90 24 90 41 0 4 -17 8 -37 7 l-38 -1 -5 180 c-6 198 -10 216 -67
255 -30 20 -49 24 -122 26 -52 2 -100 -2 -121 -10z m174 -277 c24 -19 27 -27
24 -77 -3 -51 -6 -58 -37 -79 -43 -29 -109 -31 -142 -4 -21 16 -24 28 -24 81
0 53 3 65 24 81 33 27 119 26 155 -2z"/>
</g>
</svg>
